HIERARCHY
ROOT joint_Root
{
  OFFSET 0 0 0
  CHANNELS 6 Xposition Yposition Zposition Zrotation Xrotation Yrotation
  JOINT Hips
  {
    OFFSET 0 93.9241 -3
    CHANNELS 6 Xposition Yposition Zposition Zrotation Xrotation Yrotation
    JOINT Spine
    {
      OFFSET 15.7357 0 0
      CHANNELS 6 Xposition Yposition Zposition Zrotation Xrotation Yrotation
      JOINT Chest
      {
        OFFSET 8.98455 -0.406207 0
        CHANNELS 6 Xposition Yposition Zposition Zrotation Xrotation Yrotation
        JOINT Neck
        {
          OFFSET 16.3773 0 0
          CHANNELS 6 Xposition Yposition Zposition Zrotation Xrotation Yrotation
          JOINT Head
          {
            OFFSET 6.45672 0 0
            CHANNELS 6 Xposition Yposition Zposition Zrotation Xrotation Yrotation
            End Site
            {
              OFFSET 0 0 0
            }
          }
        }
        JOINT Shoulder_L
        {
          OFFSET 12.9942 -0.242716 4.98039
          CHANNELS 6 Xposition Yposition Zposition Zrotation Xrotation Yrotation
          JOINT UpperArm_L
          {
            OFFSET 5.34809 0 0
            CHANNELS 6 Xposition Yposition Zposition Zrotation Xrotation Yrotation
            JOINT LowerArm_L
            {
              OFFSET 24.3286 1.87007e-05 0
              CHANNELS 6 Xposition Yposition Zposition Zrotation Xrotation Yrotation
              JOINT Hand_L
              {
                OFFSET 22.2916 0 0
                CHANNELS 6 Xposition Yposition Zposition Zrotation Xrotation Yrotation
                End Site
                {
                  OFFSET 0 0 0
                }
              }
            }
          }
        }
        JOINT Shoulder_R
        {
          OFFSET 12.9945 -0.242716 -4.98039
          CHANNELS 6 Xposition Yposition Zposition Zrotation Xrotation Yrotation
          JOINT UpperArm_R
          {
            OFFSET -5.34813 0 0
            CHANNELS 6 Xposition Yposition Zposition Zrotation Xrotation Yrotation
            JOINT LowerArm_R
            {
              OFFSET -24.3289 0.000322201 0
              CHANNELS 6 Xposition Yposition Zposition Zrotation Xrotation Yrotation
              JOINT Hand_R
              {
                OFFSET -22.2915 -0.000108084 0
                CHANNELS 6 Xposition Yposition Zposition Zrotation Xrotation Yrotation
                End Site
                {
                  OFFSET 0 0 0
                }
              }
            }
          }
        }
      }
    }
    JOINT UpperLeg_L
    {
      OFFSET -2.19248 -6.46944 0
      CHANNELS 6 Xposition Yposition Zposition Zrotation Xrotation Yrotation
      JOINT LowerLeg_L
      {
        OFFSET 39.0811 0 -1.23785e-05
        CHANNELS 6 Xposition Yposition Zposition Zrotation Xrotation Yrotation
        JOINT Foot_L
        {
          OFFSET 40.9854 0 -1.26872e-05
          CHANNELS 6 Xposition Yposition Zposition Zrotation Xrotation Yrotation
          JOINT Toes_L
          {
            OFFSET 11.7543 0 0
            CHANNELS 6 Xposition Yposition Zposition Zrotation Xrotation Yrotation
            End Site
            {
              OFFSET 0 0 0
            }
          }
        }
      }
    }
    JOINT UpperLeg_R
    {
      OFFSET -2.19251 6.46944 0
      CHANNELS 6 Xposition Yposition Zposition Zrotation Xrotation Yrotation
      JOINT LowerLeg_R
      {
        OFFSET -39.0811 -0.00228153 -0.0401928
        CHANNELS 6 Xposition Yposition Zposition Zrotation Xrotation Yrotation
        JOINT Foot_R
        {
          OFFSET -40.9854 0 0
          CHANNELS 6 Xposition Yposition Zposition Zrotation Xrotation Yrotation
          JOINT Toes_R
          {
            OFFSET -11.7543 0 0
            CHANNELS 6 Xposition Yposition Zposition Zrotation Xrotation Yrotation
            End Site
            {
              OFFSET 0 0 0
            }
          }
        }
      }
    }
  }
}
MOTION
Frames:	9
Frame Time:	0.0333333
0 0 0 0 0 -0 -2.50639 84.7551 -8.67759 77.8809 -37.244 -16.9093 15.7357 5.1072e-06 -5.51765e-07 134.007 84.7122 -132.216 8.98455 -0.406207 -4.3199e-07 -0.266102 7.22015 3.60056 16.3773 -1.3905e-06 -6.99897e-07 -17.429 12.4279 -0.0656321 6.45672 -1.25837e-06 -1.02172e-07 -1.12951 10.0695 -2.58257 12.9942 -0.242716 4.98039 -89.056 -5.46184 -95.1785 5.34809 -7.22636e-06 -6.2814e-07 -27.7616 -11.3505 10.4367 24.3286 1.87007e-05 4.90208e-06 4.21604 13.2855 -17.79 22.2916 -9.88446e-07 4.63217e-06 18.0535 5.54328 -8.39536 12.9945 -0.242716 -4.98039 90.1867 -10.3621 -103.962 -5.34813 -1.25947e-06 -3.79883e-06 -27.4822 -2.96217 -78.7462 -24.3289 0.000322201 -8.65921e-06 13.4899 -0.476894 -91.9926 -22.2915 -0.000108084 -4.47941e-06 15.3388 5.52845 -7.72572 -2.19248 -6.46944 -1.22534e-07 149.127 -51.9011 -75.6501 39.0811 -6.73843e-06 -1.23785e-05 -0.262057 0.368718 29.9449 40.9854 -6.48686e-06 -1.26872e-05 19.4026 -22.732 -40.2553 11.7543 -2.30145e-07 3.05095e-06 -0.116497 -0.288338 -19.1522 -2.19251 6.46944 -1.45247e-06 -179.513 41.8432 156.217 -39.0811 -0.00228153 -0.0401928 0.517643 -0.476617 45.4387 -40.9854 7.72618e-06 5.99936e-06 -14.3652 -6.39898 -72.0669 -11.7543 -5.6619e-06 -5.58687e-06 -1.10119 -0.965928 -15.7895 
0 0 0 0 0 -0 -3.21633 85.1611 -5.34866 76.6732 -33.6804 -17.1968 15.7357 5.1072e-06 -5.51765e-07 148.381 84.3934 -146.984 8.98455 -0.406207 -4.3199e-07 -2.01057 9.42696 2.96437 16.3773 -1.3905e-06 -6.99897e-07 -19.8568 10.3516 1.52323 6.45672 -1.25837e-06 -1.02172e-07 -0.0673302 6.0077 -1.25063 12.9942 -0.242716 4.98039 -88.867 -5.45592 -93.2489 5.34809 -7.22636e-06 -6.2814e-07 -29.9365 -7.12541 16.5296 24.3286 1.87007e-05 4.90208e-06 2.83079 14.2822 -11.3344 22.2916 -9.88446e-07 4.63217e-06 18.158 5.52611 -7.62465 12.9945 -0.242716 -4.98039 89.89 -10.853 -105.584 -5.34813 -1.25947e-06 -3.79883e-06 -28.1463 -3.15055 -82.3761 -24.3289 0.000322201 -8.65921e-06 15.9656 0.70436 -87.5426 -22.2915 -0.000108084 -4.47941e-06 13.1881 5.52148 -7.4211 -2.19248 -6.46944 -1.22534e-07 154.654 -50.5796 -71.9669 39.0811 -6.73843e-06 -1.23785e-05 -0.194446 0.216125 34.7716 40.9854 -6.48686e-06 -1.26872e-05 15.9491 -22.3435 -47.9022 11.7543 -2.30145e-07 3.05095e-06 -0.21901 0.00987956 -16.5272 -2.19251 6.46944 -1.45247e-06 178.437 41.6706 160.36 -39.0811 -0.00228153 -0.0401928 0.50842 -0.494637 43.7466 -40.9854 7.72618e-06 5.99936e-06 -16.8012 -8.17571 -64.8642 -11.7543 -5.6619e-06 -5.58687e-06 -1.66212 -2.41724 -22.5443 
0 0 0 0 0 -0 -3.80268 85.8388 -1.49597 75.4885 -28.2641 -16.739 15.7357 5.1072e-06 -5.51765e-07 162.585 83.7884 -161.667 8.98455 -0.406207 -4.3199e-07 -4.18705 11.7497 2.27169 16.3773 -1.3905e-06 -6.99897e-07 -22.25 6.79494 3.06684 6.45672 -1.25837e-06 -1.02172e-07 1.79967 0.300507 0.707925 12.9942 -0.242716 4.98039 -88.5871 -5.53416 -90.6544 5.34809 -7.22636e-06 -6.2814e-07 -30.6716 -5.73999 22.1533 24.3286 1.87007e-05 4.90208e-06 2.39781 15.3308 -8.99953 22.2916 -9.88446e-07 4.63217e-06 18.6594 5.4987 -6.48371 12.9945 -0.242716 -4.98039 89.5735 -10.996 -107.235 -5.34813 -1.25947e-06 -3.79883e-06 -30.3855 -2.06717 -83.0969 -24.3289 0.000322201 -8.65921e-06 16.4083 2.07776 -82.9828 -22.2915 -0.000108084 -4.47941e-06 12.6525 5.54191 -8.32187 -2.19248 -6.46944 -1.22534e-07 162.1 -47.1229 -66.1623 39.0811 -6.73843e-06 -1.23785e-05 -0.172279 0.165928 38.3203 40.9854 -6.48686e-06 -1.26872e-05 13.0923 -22.9057 -51.9483 11.7543 -2.30145e-07 3.05095e-06 -0.193405 0.0169751 -16.542 -2.19251 6.46944 -1.45247e-06 175.473 41.1419 164.524 -39.0811 -0.00228153 -0.0401928 0.669796 -0.654089 44.0063 -40.9854 7.72618e-06 5.99936e-06 -17.5604 -9.46325 -52.6749 -11.7543 -5.6619e-06 -5.58687e-06 1.15257 -1.42747 -26.7897 
0 0 0 0 0 -0 -4.07176 86.7635 2.77694 74.0327 -21.7533 -15.14 15.7357 5.1072e-06 -5.51765e-07 172.606 82.5621 -172.301 8.98455 -0.406207 -4.3199e-07 -6.00197 14.6941 1.38732 16.3773 -1.3905e-06 -6.99897e-07 -24.4861 1.6141 4.10786 6.45672 -1.25837e-06 -1.02172e-07 3.65427 -7.41982 3.77699 12.9942 -0.242716 4.98039 -87.9857 -6.16081 -86.857 5.34809 -7.22636e-06 -6.2814e-07 -29.4183 -6.61735 26.1799 24.3286 1.87007e-05 4.90208e-06 4.45729 17.7715 -14.3212 22.2916 -9.88446e-07 4.63217e-06 18.9696 5.46389 -5.14328 12.9945 -0.242716 -4.98039 89.5504 -9.82873 -107.631 -5.34813 -1.25947e-06 -3.79883e-06 -32.3356 -1.21946 -80.8462 -24.3289 0.000322201 -8.65921e-06 16.1443 3.49027 -78.1241 -22.2915 -0.000108084 -4.47941e-06 17.3377 5.57949 -10.1559 -2.19248 -6.46944 -1.22534e-07 170.268 -42.6743 -58.7254 39.0811 -6.73843e-06 -1.23785e-05 -0.13774 0.11646 40.7202 40.9854 -6.48686e-06 -1.26872e-05 10.2811 -22.6389 -55.9643 11.7543 -2.30145e-07 3.05095e-06 -0.155697 0.019438 -16.5592 -2.19251 6.46944 -1.45247e-06 171.988 39.6379 168.617 -39.0811 -0.00228153 -0.0401928 1.02865 -0.992312 45.0756 -40.9854 7.72618e-06 5.99936e-06 -12.353 -6.4965 -32.6909 -11.7543 -5.6619e-06 -5.58687e-06 1.7075 -2.35778 -32.805 
0 0 0 0 0 -0 -4.05115 87.6299 7.29252 71.6221 -14.8118 -11.9778 15.7357 5.1072e-06 -5.51765e-07 177.196 81.3357 -177.561 8.98455 -0.406207 -4.3199e-07 -7.04883 17.3194 0.339021 16.3773 -1.3905e-06 -6.99897e-07 -25.5515 -4.5781 5.69416 6.45672 -1.25837e-06 -1.02172e-07 4.8037 -15.7557 8.95764 12.9942 -0.242716 4.98039 -87.0064 -6.7024 -80.8665 5.34809 -7.22636e-06 -6.2814e-07 -26.8805 -4.59445 27.8803 24.3286 1.87007e-05 4.90208e-06 9.30317 19.269 -26.3922 22.2916 -9.88446e-07 4.63217e-06 17.4832 5.50171 -6.60602 12.9945 -0.242716 -4.98039 89.9428 -5.66406 -105.573 -5.34813 -1.25947e-06 -3.79883e-06 -34.2151 -0.276472 -76.7855 -24.3289 0.000322201 -8.65921e-06 16.8005 4.87415 -74.2853 -22.2915 -0.000108084 -4.47941e-06 18.2828 5.57987 -10.1863 -2.19248 -6.46944 -1.22534e-07 178.497 -38.5258 -50.8509 39.0811 -6.73843e-06 -1.23785e-05 -0.0694307 0.0416772 42.8526 40.9854 -6.48686e-06 -1.26872e-05 7.98901 -21.2964 -60.2226 11.7543 -2.30145e-07 3.05095e-06 -0.12337 0.0213452 -16.5695 -2.19251 6.46944 -1.45247e-06 168.12 36.5899 173.401 -39.0811 -0.00228153 -0.0401928 1.62917 -1.52308 46.6551 -40.9854 7.72618e-06 5.99936e-06 -11.4094 -5.70992 -5.9518 -11.7543 -5.6619e-06 -5.58687e-06 0.156985 -0.166082 -17.8461 
0 0 0 0 0 -0 -3.87313 88.213 11.431 68.7214 -7.66762 -7.38361 15.7357 5.1072e-06 -5.51765e-07 178.995 80.8232 -179.621 8.98455 -0.406207 -4.3199e-07 -7.57011 18.3905 -0.0373224 16.3773 -1.3905e-06 -6.99897e-07 -22.1893 -9.79514 7.24568 6.45672 -1.25837e-06 -1.02172e-07 4.15835 -23.6187 15.8433 12.9942 -0.242716 4.98039 -85.5324 -7.79532 -75.0601 5.34809 -7.22636e-06 -6.2814e-07 -27.374 2.24094 29.5891 24.3286 1.87007e-05 4.90208e-06 16.6092 20.3442 -40.621 22.2916 -9.88446e-07 4.63217e-06 19.9253 5.52335 -7.49427 12.9945 -0.242716 -4.98039 90.1043 -2.76621 -102.835 -5.34813 -1.25947e-06 -3.79883e-06 -39.0239 1.58689 -70.2753 -24.3289 0.000322201 -8.65921e-06 16.8866 6.20268 -70.4115 -22.2915 -0.000108084 -4.47941e-06 13.6057 5.54482 -8.44558 -2.19248 -6.46944 -1.22534e-07 -174.03 -34.9022 -43.5257 39.0811 -6.73843e-06 -1.23785e-05 -0.000870019 -0.0192706 44.9723 40.9854 -6.48686e-06 -1.26872e-05 6.59943 -18.4095 -64.2989 11.7543 -2.30145e-07 3.05095e-06 -0.137181 0.0328402 -16.5739 -2.19251 6.46944 -1.45247e-06 165.204 32.3395 176.126 -39.0811 -0.00228153 -0.0401928 2.15132 -1.42545 56.3438 -40.9854 7.72618e-06 5.99936e-06 -9.93695 -3.43947 5.18792 -11.7543 -5.6619e-06 -5.58687e-06 0.07802 -0.0816078 -17.2025 
0 0 0 0 0 -0 -3.36373 88.9509 15.1288 65.4879 0.0969731 -1.69217 15.7357 5.1072e-06 -5.51765e-07 179.672 80.9573 -179.905 8.98455 -0.406207 -4.3199e-07 -7.85566 18.0703 0.781453 16.3773 -1.3905e-06 -6.99897e-07 -16.894 -13.2923 7.91103 6.45672 -1.25837e-06 -1.02172e-07 5.53179 -30.7282 22.3569 12.9942 -0.242716 4.98039 -83.7874 -9.68693 -72.1005 5.34809 -7.22636e-06 -6.2814e-07 -31.325 8.6061 32.2041 24.3286 1.87007e-05 4.90208e-06 20.7855 17.0143 -52.3754 22.2916 -9.88446e-07 4.63217e-06 19.9856 5.55934 -9.17649 12.9945 -0.242716 -4.98039 90.1118 -1.51607 -100.777 -5.34813 -1.25947e-06 -3.79883e-06 -42.9158 2.75707 -60.9867 -24.3289 0.000322201 -8.65921e-06 19.7901 9.46118 -65.4543 -22.2915 -0.000108084 -4.47941e-06 5.48093 5.4882 -6.00448 -2.19248 -6.46944 -1.22534e-07 -167.518 -31.095 -36.2784 39.0811 -6.73843e-06 -1.23785e-05 0.0272864 -0.0409543 45.4533 40.9854 -6.48686e-06 -1.26872e-05 6.4482 -14.183 -67.321 11.7543 -2.30145e-07 3.05095e-06 -0.157723 0.0527376 -16.5771 -2.19251 6.46944 -1.45247e-06 161.408 29.9782 177.407 -39.0811 -0.00228153 -0.0401928 2.47834 -0.841217 71.1222 -40.9854 7.72618e-06 5.99936e-06 -2.0696 -7.09961 -0.183283 -11.7543 -5.6619e-06 -5.58687e-06 0.113055 -0.118815 -17.487 
0 0 0 0 0 -0 -2.51078 89.4661 17.8822 61.5486 8.0496 5.01353 15.7357 5.1072e-06 -5.51765e-07 179.199 81.5723 -178.624 8.98455 -0.406207 -4.3199e-07 -7.81148 16.7337 2.30843 16.3773 -1.3905e-06 -6.99897e-07 -11.493 -16.1909 8.98039 6.45672 -1.25837e-06 -1.02172e-07 7.97025 -35.6888 26.5238 12.9942 -0.242716 4.98039 -82.6459 -11.2258 -71.4571 5.34809 -7.22636e-06 -6.2814e-07 -36.9032 15.2437 34.4382 24.3286 1.87007e-05 4.90208e-06 20.4829 10.8383 -63.2867 22.2916 -9.88446e-07 4.63217e-06 14.7438 5.58883 -10.719 12.9945 -0.242716 -4.98039 90.0533 -0.531999 -99.2663 -5.34813 -1.25947e-06 -3.79883e-06 -42.131 4.59771 -50.0725 -24.3289 0.000322201 -8.65921e-06 21.0047 13.4085 -58.8744 -22.2915 -0.000108084 -4.47941e-06 -2.2585 5.39432 -2.71783 -2.19248 -6.46944 -1.22534e-07 -161.754 -25.9281 -30.2917 39.0811 -6.73843e-06 -1.23785e-05 0.0774564 -0.0820074 45.7049 40.9854 -6.48686e-06 -1.26872e-05 7.02669 -10.1323 -69.5639 11.7543 -2.30145e-07 3.05095e-06 -0.151511 0.0694394 -16.5778 -2.19251 6.46944 -1.45247e-06 157.034 26.6566 177.43 -39.0811 -0.00228153 -0.0401928 2.9336 -0.262831 84.8933 -40.9854 7.72618e-06 5.99936e-06 5.59232 -11.9048 2.80125 -11.7543 -5.6619e-06 -5.58687e-06 0.12663 -0.133357 -17.5978 
0 0 0 0 0 -0 -1.29104 90.0812 19.8538 57.2007 14.8525 12.4078 15.7357 5.1072e-06 -5.51765e-07 176.65 82.1862 -175.235 8.98455 -0.406207 -4.3199e-07 -7.1944 15.3842 3.82039 16.3773 -1.3905e-06 -6.99897e-07 -6.91907 -18.1328 10.7185 6.45672 -1.25837e-06 -1.02172e-07 9.12425 -38.6374 28.0855 12.9942 -0.242716 4.98039 -82.6667 -11.4267 -71.9924 5.34809 -7.22636e-06 -6.2814e-07 -41.8826 24.0581 33.8873 24.3286 1.87007e-05 4.90208e-06 21.1695 5.82108 -75.3253 22.2916 -9.88446e-07 4.63217e-06 12.4735 5.58406 -10.4252 12.9945 -0.242716 -4.98039 89.9058 0.830951 -98.5338 -5.34813 -1.25947e-06 -3.79883e-06 -41.9101 5.90953 -37.6358 -24.3289 0.000322201 -8.65921e-06 22.2776 19.0225 -51.5068 -22.2915 -0.000108084 -4.47941e-06 -5.67726 5.28339 0.546803 -2.19248 -6.46944 -1.22534e-07 -157.122 -20.7935 -24.7346 39.0811 -6.73843e-06 -1.23785e-05 0.122923 -0.124539 44.7975 40.9854 -6.48686e-06 -1.26872e-05 8.12353 -6.40063 -70.9455 11.7543 -2.30145e-07 3.05095e-06 -0.143732 0.0854483 -16.5755 -2.19251 6.46944 -1.45247e-06 153.117 21.0898 174.844 -39.0811 -0.00228153 -0.0401928 3.39531 0.355646 96.1013 -40.9854 7.72618e-06 5.99936e-06 8.09576 -6.43327 6.86981 -11.7543 -5.6619e-06 -5.58687e-06 0.143389 -0.151437 -17.7349 
